<?xml version="1.0" standalone="no"?>
<!DOCTYPE svg PUBLIC "-//W3C//DTD SVG 1.1//EN" "http://www.w3.org/Graphics/SVG/1.1/DTD/svg11.dtd" >
<svg xmlns="http://www.w3.org/2000/svg">
<metadata>
This is a custom SVG webfont generated by Font Squirrel.
</metadata>
<defs>
<font id="webfontgRDmHvB2" horiz-adv-x="678" >
<font-face units-per-em="1000" ascent="800" descent="-200" />
<missing-glyph horiz-adv-x="225" />
<glyph unicode=" "  horiz-adv-x="225" />
<glyph unicode="&#x09;" horiz-adv-x="225" />
<glyph unicode="&#xa0;" horiz-adv-x="225" />
<glyph unicode="!" horiz-adv-x="286" d="M208 706l-24 -494h-84l-25 475zM216 64q0 -31 -22 -52.5t-52 -21.5q-31 0 -51.5 21.5t-20.5 52.5q0 30 21 51.5t52 21.5q30 0 51.5 -21.5t21.5 -51.5z" />
<glyph unicode="&#x22;" horiz-adv-x="443" d="M373 442h-102v267h102v-267zM172 442h-102v267h102v-267z" />
<glyph unicode="#" horiz-adv-x="556" d="M526 425h-100l-20 -141h90v-77h-100l-29 -207h-83l29 207h-112l-29 -207h-82l28 207h-88v77h99l19 141h-89v77h100l28 206h83l-29 -206h112l29 206h82l-28 -206h90v-77zM343 425h-112l-20 -141h113z" />
<glyph unicode="$" horiz-adv-x="579" d="M539 210q0 -92 -64.5 -151.5t-157.5 -69.5v-88h-72v87q-109 3 -205 60l44 89q98 -56 192 -56q65 0 99 31t34 78q0 75 -95 103l-84 25q-94 28 -130 78q-33 45 -33 107q0 83 53 138t144 68v76h72v-76q103 -6 187 -66l-52 -81q-88 53 -159 53q-58 0 -88 -26t-30 -68 q0 -64 80 -85l94 -26q82 -22 125 -73q46 -52 46 -127z" />
<glyph unicode="%" horiz-adv-x="834" d="M363 528q0 -79 -45 -124q-46 -46 -122 -46q-77 0 -121.5 46t-44.5 125q0 78 45.5 124.5t119.5 46.5q78 0 123 -45t45 -127zM804 162q0 -77 -44.5 -124t-122.5 -47q-77 0 -121.5 46t-44.5 125q0 78 45.5 124.5t119.5 46.5q79 0 123.5 -45.5t44.5 -125.5zM633 690 l-351 -690h-79l350 690h80zM272 527q0 57 -18.5 83t-58.5 26q-75 0 -75 -104q0 -59 18.5 -84.5t58.5 -25.5q75 0 75 105zM713 160q0 58 -18.5 83.5t-58.5 25.5q-75 0 -75 -103q0 -60 18 -85t59 -25q75 0 75 104z" />
<glyph unicode="&#x26;" horiz-adv-x="689" d="M689 0h-151l-53 53q-66 -66 -193 -66q-116 0 -179 50t-63 136q0 61 33.5 101.5t99.5 72.5q-49 39 -69 73.5t-20 79.5q0 70 53.5 116.5t136.5 46.5q84 0 139 -42.5t55 -113.5q0 -55 -35 -93t-102 -70l136 -132q14 36 14 122h92q0 -121 -34 -195zM420 115l-178 174 q-74 -41 -74 -113q0 -51 34 -80t94 -29q84 0 124 48zM362 507q0 35 -21.5 57t-55.5 22t-55.5 -20t-21.5 -56q0 -25 15 -48.5t57 -62.5q82 41 82 108z" />
<glyph unicode="'" horiz-adv-x="242" d="M172 442h-102v267h102v-267z" />
<glyph unicode="(" horiz-adv-x="303" d="M323 -103l-29 -60q-68 25 -120.5 78t-82.5 127q-41 102 -41 280q0 146 35 236q60 154 208 220l28 -61q-90 -61 -124 -143q-36 -84 -36 -250q0 -136 21 -221q19 -75 50 -125t91 -81z" />
<glyph unicode=")" horiz-adv-x="304" d="M254 310q0 -146 -32 -242q-27 -79 -82 -140t-131 -91l-29 61q95 54 135 172q27 81 27 240q0 96 -19 196q-27 143 -141 211l28 61q131 -52 199 -194q45 -95 45 -274z" />
<glyph unicode="*" horiz-adv-x="456" d="M431 531l-136 -45l86 -118l-67 -51l-87 121l-84 -118l-66 50l86 116l-138 47l27 79l136 -48v144h82v-144l136 46z" />
<glyph unicode="+" horiz-adv-x="600" d="M550 232h-199v-200h-102v200h-199v104h199v200h102v-200h199v-104z" />
<glyph unicode="," horiz-adv-x="282" d="M222 35q0 -61 -37 -110t-95 -69l-40 50q30 10 49 30t19 41q0 12 -22 21q-43 17 -43 67q0 34 23 57t56 23q39 0 64.5 -31t25.5 -79z" />
<glyph unicode="-" horiz-adv-x="319" d="M269 221h-219v102h219v-102z" />
<glyph unicode="." horiz-adv-x="277" d="M217 67q0 -34 -23 -58t-55 -24q-33 0 -56 24t-23 58q0 33 22.5 56t54.5 23q33 0 56.5 -23t23.5 -56z" />
<glyph unicode="/" horiz-adv-x="440" d="M390 762l-264 -913h-76l263 913h77z" />
<glyph unicode="0" horiz-adv-x="562" d="M512 252q0 -120 -63.5 -192.5t-167.5 -72.5q-107 0 -169 71.5t-62 193.5q0 121 63.5 193.5t167.5 72.5q107 0 169 -72t62 -194zM392 245q0 106 -28 148.5t-84 42.5q-110 0 -110 -177q0 -105 28 -147.5t84 -42.5q110 0 110 176z" />
<glyph unicode="1" horiz-adv-x="430" d="M385 0h-294v89h103v301q-58 -36 -127 -63l-27 58l183 132h77v-428h85v-89z" />
<glyph unicode="2" horiz-adv-x="551" d="M491 91l-23 -91h-401v98l119 77q86 56 122.5 95t36.5 82q0 37 -24.5 56.5t-67.5 19.5q-64 0 -144 -63l-59 64q108 96 233 96q84 0 136 -42.5t52 -113.5q0 -63 -52 -122t-162 -126l-56 -34q44 4 101 4h189z" />
<glyph unicode="3" horiz-adv-x="524" d="M474 51q0 -70 -47 -125q-98 -109 -299 -109q-39 0 -69 4l-25 75q30 -5 62 -5q34 0 71 6q70 12 113 44q67 49 67 119q0 64 -58 90q-19 8 -54 11q-26 2 -47 2h-14l-25 -1v88q36 -3 62 -3q125 0 125 91q0 41 -26.5 65.5t-73.5 24.5q-68 0 -151 -55l-55 65q46 39 105.5 60.5 t117.5 21.5q89 0 146.5 -47.5t57.5 -120.5q0 -109 -113 -149q62 -19 96 -59t34 -93z" />
<glyph unicode="4" horiz-adv-x="535" d="M505 8h-47l-31 2q4 -17 4 -36v-143l-105 -18v164l1 32q-19 -1 -37 -1h-260v78l205 437h115l-160 -342q-26 -56 -46 -84q18 3 31 3h120l35 -1q-1 11 -1 29q0 45 8 134l8 88l86 21v-185l-3 -87q21 1 34 1h43v-92z" />
<glyph unicode="5" horiz-adv-x="510" d="M450 63q0 -109 -86.5 -178.5t-216.5 -69.5q-41 0 -74 8l-23 80q45 -13 85 -13q85 0 140.5 46.5t55.5 116.5q0 54 -34.5 85.5t-91.5 31.5q-63 0 -137 -25l32 361h320l-16 -93h-203l-15 -163q35 5 57 5q91 0 149 -52.5t58 -139.5z" />
<glyph unicode="6" horiz-adv-x="576" d="M521 209q0 -95 -65 -159.5t-162 -64.5q-106 0 -172.5 77.5t-66.5 201.5q0 94 42.5 177.5t114.5 146.5q97 85 224 122l24 -77q-109 -35 -176 -102q-68 -68 -94 -161q50 44 125 44q85 0 145.5 -58t60.5 -147zM403 207q0 56 -29 88t-77 32q-54 0 -116 -41q-3 -25 -3 -59 q0 -76 29 -116.5t83 -40.5q52 0 82.5 37t30.5 100z" />
<glyph unicode="7" horiz-adv-x="498" d="M468 506l-20 -100q-50 -72 -89 -141q-77 -133 -118 -264q-30 -67 -51 -163l-124 -32q22 98 61 201q42 110 91 203q65 123 131 203q-17 -4 -65 -4h-254l25 97h413z" />
<glyph unicode="8" horiz-adv-x="587" d="M537 186q0 -89 -67.5 -146.5t-183.5 -57.5q-107 0 -171.5 52t-64.5 136q0 61 36.5 107t93.5 66q-50 19 -79.5 62t-29.5 91q0 79 62 128t165 49q95 0 154.5 -46t59.5 -119q0 -45 -31.5 -87.5t-103.5 -65.5q160 -59 160 -169zM415 163q0 48 -33.5 74t-129.5 65 q-82 -47 -82 -123q0 -53 34.5 -84.5t93.5 -31.5q52 0 84.5 28t32.5 72zM394 509q0 40 -28 62.5t-78 22.5q-48 0 -77 -24t-29 -64q0 -32 23.5 -55t91.5 -55q97 48 97 113z" />
<glyph unicode="9" horiz-adv-x="561" d="M511 262q0 -188 -150 -332q-108 -101 -236 -135l-59 66q95 21 185 96q78 65 109 151q-52 -31 -103 -31q-89 0 -148 61.5t-59 155.5q0 99 66.5 164.5t166.5 65.5q104 0 166 -70.5t62 -191.5zM392 284q0 71 -30.5 113t-81.5 42q-50 0 -80 -39t-30 -103q0 -61 30 -97t81 -36 q53 0 101 44q10 41 10 76z" />
<glyph unicode=":" horiz-adv-x="295" d="M224 63q0 -32 -23 -54.5t-55 -22.5t-54 22.5t-22 54.5q0 33 22 57q22 23 53 23h3q31 0 53.5 -23.5t22.5 -56.5zM225 372q0 -33 -23 -55.5t-55 -22.5q-31 0 -53.5 22t-22.5 54q0 33 22.5 56t54.5 24q32 0 54.5 -23t22.5 -55z" />
<glyph unicode=";" horiz-adv-x="313" d="M243 32q0 -60 -37.5 -109t-95.5 -69l-40 49q30 10 49 30t19 40q0 9 -10 16t-22.5 12.5t-22.5 21.5t-10 39q0 34 23 57.5t56 23.5q40 0 65.5 -31t25.5 -80zM229 371q0 -32 -22.5 -55t-54.5 -23t-55 23t-23 55t22.5 55.5t53.5 23.5h3q30 0 53 -23q23 -24 23 -56z" />
<glyph unicode="&#x3c;" horiz-adv-x="368" d="M328 81l-88 -69l-220 287l220 288l88 -71l-165 -217z" />
<glyph unicode="=" horiz-adv-x="635" d="M585 344h-535v101h535v-101zM585 162h-535v101h535v-101z" />
<glyph unicode="&#x3e;" horiz-adv-x="367" d="M347 299l-219 -287l-88 69l164 218l-164 217l88 71z" />
<glyph unicode="?" horiz-adv-x="463" d="M403 543q0 -33 -10 -59.5t-29 -46.5t-29.5 -28t-28.5 -20q-67 -45 -67 -127q0 -20 3 -39h-94q-8 35 -8 62q0 85 78 148q6 4 20 14.5t21 16.5t16.5 16.5t13.5 22.5t4 27q0 37 -24.5 57t-62.5 20q-61 0 -118 -45l-48 71q76 69 188 69q74 0 124.5 -43.5t50.5 -115.5zM282 64 q0 -32 -22.5 -54.5t-53.5 -22.5t-52.5 22.5t-21.5 54.5q0 31 21.5 52.5t53.5 21.5q30 0 52.5 -21.5t22.5 -52.5z" />
<glyph unicode="@" horiz-adv-x="911" d="M861 276q0 -129 -66 -209.5t-161 -80.5q-55 0 -83.5 24.5t-31.5 62.5q-63 -75 -150 -75q-50 0 -86.5 37.5t-36.5 107.5q0 127 73.5 218.5t202.5 91.5q70 0 137 -36q-20 -67 -63 -269q-7 -33 -7 -53q0 -16 4 -23q9 -19 44 -19q54 0 92.5 64t38.5 159q0 119 -84.5 200.5 t-219.5 81.5q-141 0 -230.5 -105.5t-89.5 -247.5q0 -131 87 -216t215 -85q78 0 144 22l18 -68q-70 -23 -162 -23q-80 0 -151 24.5t-126 70.5t-87 117t-32 158q0 178 117.5 299t296.5 121q171 0 284 -96.5t113 -252.5zM556 380q-15 7 -41 7q-59 0 -101 -40t-59 -94t-17 -114 q0 -38 12.5 -53t39.5 -15q36 0 75 34.5t52 95.5z" />
<glyph unicode="A" horiz-adv-x="577" d="M579 0h-126l-56 182h-224l-56 -182h-119l227 693h133zM371 278q-5 11 -41.5 145t-40.5 155h-1q-71 -254 -87 -300h170z" />
<glyph unicode="B" horiz-adv-x="601" d="M551 196q0 -196 -270 -196h-201v692h183q77 0 113.5 -7t68.5 -27q78 -50 78 -136q0 -56 -31 -95.5t-88 -55.5q79 -19 113 -67t34 -108zM424 207q0 37 -18 65t-47 36q-20 6 -64 6h-101v-219h104q63 0 94.5 31t31.5 81zM402 504q0 30 -15.5 53.5t-40.5 32.5q-22 8 -65 8 h-89v-189h98q34 0 51.5 5t33.5 21q27 28 27 69z" />
<glyph unicode="C" horiz-adv-x="567" d="M537 50q-80 -61 -189 -61q-136 0 -219 100q-79 96 -79 247q0 124 46 210q39 74 106.5 116.5t148.5 42.5q107 0 172 -54l-53 -76q-53 39 -118 39q-91 0 -138 -83q-36 -63 -36 -182q0 -113 27 -172q45 -98 154 -98q69 0 124 44z" />
<glyph unicode="D" horiz-adv-x="621" d="M571 344q0 -154 -73 -247q-43 -55 -96.5 -76t-150.5 -21h-171v692h144q100 0 162 -22t110 -76q75 -87 75 -250zM443 332q0 149 -44 209q-24 33 -53.5 46.5t-76.5 13.5h-73v-507h76q90 0 130.5 59t40.5 179z" />
<glyph unicode="E" horiz-adv-x="499" d="M474 0h-394v692h384l-15 -94h-254v-189h213v-95h-211v-216h277v-98z" />
<glyph unicode="F" horiz-adv-x="431" d="M446 692l-14 -94h-237v-188h193v-93h-193v-317h-115v692h366z" />
<glyph unicode="G" horiz-adv-x="639" d="M569 49q-96 -58 -216 -58q-147 0 -226 98q-77 94 -77 252q0 209 130 306q71 54 171 54q121 0 206 -73l-58 -72q-69 53 -146 53q-175 0 -175 -274q0 -144 51 -204q44 -52 131 -52q51 0 92 22v180h-118l-16 94h251v-326z" />
<glyph unicode="H" horiz-adv-x="626" d="M546 0h-116v320h-236v-320h-114v692h114v-278h236v278h116v-692z" />
<glyph unicode="I" horiz-adv-x="278" d="M198 0h-118v692h118v-692z" />
<glyph unicode="J" horiz-adv-x="283" d="M203 128q0 -83 -9 -122t-32 -71q-41 -57 -117 -85l-54 61q58 32 80 78q16 33 16 129v574h116v-564z" />
<glyph unicode="K" horiz-adv-x="571" d="M581 0h-150l-233 369l225 323h142l-240 -321zM197 0h-117v692h117v-692z" />
<glyph unicode="L" horiz-adv-x="463" d="M453 95l-19 -95h-354v692h117v-597h256z" />
<glyph unicode="M" horiz-adv-x="816" d="M756 0h-113l-32 429q-5 73 -5 120q-16 -74 -27 -111l-126 -438h-98l-115 419q-19 66 -30 131q0 -32 -7 -132l-30 -418h-113l63 692h153l106 -392q11 -41 26 -118q7 50 25 116l109 394h153z" />
<glyph unicode="N" horiz-adv-x="629" d="M549 0h-121l-155 325q-68 141 -88 205l-3 -3q5 -55 7 -192l4 -335h-113v692h130l168 -338q48 -96 71 -178l3 3q-10 117 -10 197l-2 316h109v-692z" />
<glyph unicode="O" d="M628 345q0 -164 -75 -260t-209 -96q-143 0 -218.5 98.5t-75.5 258.5q0 168 78.5 262t210.5 94q141 0 215 -99t74 -258zM497 338q0 136 -35.5 205.5t-123.5 69.5q-84 0 -122 -65.5t-38 -194.5q0 -138 38.5 -207.5t124.5 -69.5q79 0 117.5 62.5t38.5 199.5z" />
<glyph unicode="P" horiz-adv-x="555" d="M535 485q0 -100 -64 -160.5t-160 -60.5h-117v-264h-114v692h184q73 0 109.5 -7.5t66.5 -25.5q95 -56 95 -174zM408 478q0 58 -28 87q-32 34 -96 34h-90v-243h90q124 0 124 122z" />
<glyph unicode="Q" d="M702 -39l-31 -77q-25 -10 -52 -10q-61 0 -136 49q-73 49 -143 67q-140 0 -215 99t-75 258q0 167 78.5 261t209.5 94q139 0 214.5 -96t75.5 -261q0 -229 -142 -318q23 -9 76 -41q46 -29 100 -29q20 0 40 4zM496 338q0 140 -36 207.5t-123 67.5q-83 0 -121 -64.5 t-38 -195.5q0 -150 41 -213t122 -63q78 0 116.5 61t38.5 200z" />
<glyph unicode="R" horiz-adv-x="573" d="M553 0h-137l-60 107q-69 122 -118 171q-20 20 -45 21v-299h-113v692h211q111 0 168 -56t57 -142q0 -78 -47 -134t-125 -56q32 -16 107 -138zM396 493q0 54 -32.5 80t-107.5 26h-63v-219h59q84 0 113 29q31 31 31 84z" />
<glyph unicode="S" horiz-adv-x="587" d="M542 209q0 -92 -72 -157t-198 -65q-124 0 -227 62l44 88q98 -57 187 -57q64 0 100 29t36 81q0 74 -103 103l-74 21q-97 28 -134 83q-29 43 -29 101q0 91 65.5 148t169.5 57q125 0 219 -66l-52 -81q-89 53 -163 53q-51 0 -82 -25.5t-31 -68.5q0 -32 20.5 -51t71.5 -34 l82 -24q79 -23 124.5 -72.5t45.5 -124.5z" />
<glyph unicode="T" horiz-adv-x="474" d="M494 692l-15 -96h-174v-596h-115v596h-175v96h479z" />
<glyph unicode="U" horiz-adv-x="629" d="M554 194q0 -96 -63.5 -151t-176.5 -55q-127 0 -183 56.5t-56 148.5v499h116v-465q0 -78 29 -109.5t94 -31.5q125 0 125 141v465h115v-498z" />
<glyph unicode="V" horiz-adv-x="558" d="M568 692l-238 -695h-107l-233 695h126l125 -392q28 -88 36 -139h2q8 42 42 145l127 386h120z" />
<glyph unicode="W" horiz-adv-x="816" d="M811 692l-164 -696h-132l-71 321q-10 46 -18.5 96t-11.5 77l-4 27h-3q-18 -113 -35 -197l-67 -324h-135l-165 696h123l69 -322q24 -112 37 -222h3q20 130 38 214l72 330h129l72 -344q17 -82 34 -195h3q23 146 40 225l66 314h120z" />
<glyph unicode="X" horiz-adv-x="540" d="M550 0h-138l-143 274l-138 -274h-141l212 371l-186 321h140l111 -214l109 214h136l-176 -313z" />
<glyph unicode="Y" horiz-adv-x="518" d="M538 692l-221 -413v-279h-119v280l-218 412h139l104 -217q21 -44 37 -89q20 49 38 87l106 219h134z" />
<glyph unicode="Z" horiz-adv-x="531" d="M491 94l-29 -94h-422v84l270 449q21 35 46 68q-34 -4 -75 -4h-228l26 95h406v-87l-269 -454q-15 -26 -40 -59q29 2 69 2h246z" />
<glyph unicode="[" horiz-adv-x="289" d="M269 -155h-189v888h189v-76h-91v-738h91v-74z" />
<glyph unicode="\" horiz-adv-x="410" d="M400 -19l-92 -30l-298 776l91 31z" />
<glyph unicode="]" horiz-adv-x="289" d="M209 -155h-189v74h91v738h-91v76h189v-888z" />
<glyph unicode="^" horiz-adv-x="600" d="M550 318h-112l-138 286l-138 -286h-112l194 390h112z" />
<glyph unicode="_" horiz-adv-x="500" d="M500 -125h-500v50h500v-50z" />
<glyph unicode="`" horiz-adv-x="314" d="M284 623l-34 -63l-220 102l50 93z" />
<glyph unicode="a" horiz-adv-x="515" d="M478 49l-57 -70q-51 20 -69 68q-55 -62 -139 -62t-126 41.5t-42 110.5q0 87 64 131.5t186 44.5h34v27q0 48 -14 68.5t-56 20.5q-32 0 -70 -14.5t-59 -28.5l-22 -15l-49 79q109 69 215 69q120 0 154 -84q8 -21 8 -105v-19l-2 -145v-11q0 -44 7 -63q8 -23 37 -43zM327 238 q-12 1 -20 1q-80 0 -111.5 -23t-31.5 -73q0 -36 18.5 -57t51.5 -21q55 0 91 53z" />
<glyph unicode="b" horiz-adv-x="557" d="M507 261q0 -121 -56.5 -196.5t-145.5 -75.5q-76 0 -123 58q-7 -34 -14 -47h-101q13 33 13 113v477q0 82 -13 122l114 25q8 -48 8 -101v-118l-3 -48l4 -1q50 49 120 49q91 0 144 -69.5t53 -187.5zM383 260q0 77 -21 121t-76 44t-96 -51v-247q42 -44 94 -44t75.5 41 t23.5 136z" />
<glyph unicode="c" horiz-adv-x="457" d="M427 54q-67 -67 -162 -67q-103 0 -159 68.5t-56 191.5q0 130 65.5 201t157.5 71q81 0 140 -55l-55 -73q-43 39 -85 39q-55 0 -80 -51q-21 -43 -21 -141q0 -101 34 -138q26 -29 67 -29q52 0 102 50z" />
<glyph unicode="d" horiz-adv-x="555" d="M491 0h-101q-5 11 -9 39q-50 -50 -124 -50q-96 0 -151.5 70t-55.5 189t59 193t151 74q64 0 109 -46q-3 39 -3 83v185l109 -17v-544q0 -136 16 -176zM366 129v257q-38 41 -92 41q-52 0 -77 -43t-25 -135q0 -88 22.5 -128t82.5 -40q29 0 53 14t36 34z" />
<glyph unicode="e" horiz-adv-x="513" d="M473 223h-302v-8q0 -62 28.5 -103t96.5 -41t126 50l43 -67q-79 -67 -182 -67q-107 0 -170 71.5t-63 193.5q0 126 63 198q59 68 155 68q82 0 139 -52q66 -60 66 -220v-23zM359 304q0 61 -24.5 96t-66.5 35q-46 0 -71 -34.5t-25 -96.5h187z" />
<glyph unicode="f" horiz-adv-x="307" d="M347 706l-36 -70q-37 18 -61 18q-29 0 -45.5 -19t-16.5 -52v-77h132l-28 -76h-103v-430h-109v430h-47v76h49q-3 28 -3 75q0 76 42 115t112 39q63 0 114 -29z" />
<glyph unicode="g" horiz-adv-x="536" d="M551 458q-39 -33 -88 -33q-24 0 -39 5q33 -33 33 -88q0 -67 -52 -111t-140 -44q-68 -25 -68 -48q0 -8 2.5 -11.5t16.5 -6t36.5 -3t70.5 -0.5q68 0 118 -36t50 -108q0 -80 -61 -123t-164 -43t-164.5 34.5t-61.5 103.5q0 11 2.5 24.5t5.5 21.5l2 8h104q-8 -20 -8 -36 q0 -35 29 -54t82 -19q57 0 88.5 21.5t31.5 57.5q0 40 -33 55t-107 15q-97 0 -131.5 18.5t-34.5 58.5q0 34 24.5 53t71.5 34q-115 33 -115 143q0 77 55.5 124t146.5 47q40 0 88.5 -13t65.5 -13q49 0 92 35zM340 348q0 87 -87 87q-42 0 -64.5 -22.5t-22.5 -65.5q0 -85 87 -85 t87 86z" />
<glyph unicode="h" horiz-adv-x="564" d="M484 0h-107v344q0 45 -15.5 63t-48.5 18q-62 0 -122 -62v-363h-111v602q0 67 -10 110l111 24q10 -41 10 -119v-108l-2 -57q73 66 155 66q43 0 76 -18t47 -44q17 -33 17 -99v-357z" />
<glyph unicode="i" horiz-adv-x="271" d="M191 0h-111v498l111 20v-518zM209 654q0 -30 -21.5 -51.5t-52.5 -21.5q-30 0 -50.5 21.5t-20.5 51.5q0 31 21 52.5t52 21.5q30 0 51 -21.5t21 -52.5z" />
<glyph unicode="j" horiz-adv-x="271" d="M191 12q0 -105 -37 -152q-37 -46 -95 -72l-47 64q39 27 53.5 61.5t14.5 97.5v487l111 20v-506zM208 656q0 -31 -21.5 -53t-52.5 -22q-30 0 -51 21t-21 52q0 30 21.5 52t51.5 22t51.5 -21.5t21.5 -50.5z" />
<glyph unicode="k" horiz-adv-x="511" d="M189 0h-109v589q0 68 -11 122l110 27q10 -53 10 -134v-604zM521 0h-133l-191 286l150 220h133l-173 -214z" />
<glyph unicode="l" horiz-adv-x="272" d="M257 1q-30 -12 -66 -12q-32 0 -54 11.5t-33 25.5t-17 37.5t-6.5 36.5t-0.5 32v431q0 88 -10 148l113 25q9 -35 9 -139v-429q0 -74 11 -91q5 -7 15.5 -9.5t20.5 1.5z" />
<glyph unicode="m" horiz-adv-x="798" d="M718 0h-108v350q0 44 -11 60t-41 16q-45 0 -107 -58v-368h-105v347q0 44 -12 61t-43 17q-50 0 -104 -50v-375h-107v363q0 87 -18 128l100 28q15 -24 18 -65q62 64 134 64q75 0 121 -74q73 74 151 74q132 0 132 -148v-370z" />
<glyph unicode="n" horiz-adv-x="546" d="M466 0h-109v336q0 51 -13 69.5t-45 18.5q-24 0 -55 -16t-56 -41v-367h-108v372q0 71 -19 120l100 28q18 -34 18 -72q82 70 155 70q60 0 96 -36t36 -104v-378z" />
<glyph unicode="o" horiz-adv-x="537" d="M492 251q0 -122 -60.5 -193t-163.5 -71t-163 71.5t-60 193.5q0 121 60 193.5t161 72.5q106 0 166 -72.5t60 -194.5zM371 249q0 102 -26.5 144t-77.5 42q-52 0 -76 -42t-24 -134q0 -106 25.5 -148t77.5 -42q101 0 101 180z" />
<glyph unicode="p" horiz-adv-x="555" d="M505 264q0 -127 -52.5 -200.5t-148.5 -73.5q-67 0 -120 41q2 -22 2 -50v-169l-106 -27v590q0 73 -10 126l101 18q7 -23 8 -62q49 60 135 60q82 0 136.5 -64t54.5 -189zM387 252q0 89 -21 131.5t-73 42.5q-61 0 -107 -52v-252q45 -45 94 -45q55 0 81 42.5t26 132.5z" />
<glyph unicode="q" horiz-adv-x="555" d="M487 506q-12 -46 -12 -144v-551l-104 -27v188l2 67q-51 -51 -119 -51q-88 0 -146 65t-58 189q0 131 54 204t150 73q40 0 75 -16.5t54 -45.5q1 29 9 49h95zM370 134v242q-37 50 -97 50q-104 0 -104 -166q0 -101 27 -141t80 -40q28 0 53 15.5t41 39.5z" />
<glyph unicode="r" horiz-adv-x="340" d="M350 512l-34 -102q-19 7 -31 7q-34 0 -60.5 -22t-34.5 -53v-342h-110v357q0 85 -18 136l101 26q19 -36 19 -80q59 81 129 81q22 0 39 -8z" />
<glyph unicode="s" horiz-adv-x="474" d="M434 158q0 -77 -57 -124.5t-148 -47.5q-93 0 -194 56l39 79q92 -53 164 -53q36 0 59 20t23 51q0 29 -19.5 45.5t-62.5 25.5l-61 13q-57 12 -89 49t-32 90q0 71 52 116t136 45q85 0 167 -44l-36 -76q-70 37 -124 37q-35 0 -56 -18t-21 -47q0 -23 15 -36.5t53 -23.5l63 -16 q129 -33 129 -141z" />
<glyph unicode="t" horiz-adv-x="331" d="M311 9q-48 -22 -99 -22q-69 0 -100.5 35.5t-31.5 94.5v313h-56v76h56q0 87 5 125l113 27q-9 -74 -9 -152h121l-29 -76h-93v-284q0 -47 13 -64t49 -17q20 0 47 10z" />
<glyph unicode="u" horiz-adv-x="542" d="M493 36l-76 -52q-32 23 -44 63q-55 -62 -144 -62q-84 0 -126 50q-28 34 -28 120v343l108 20v-339q0 -55 14.5 -82t59.5 -27q28 0 57 19.5t42 46.5v362l106 20v-381q0 -34 8 -59t16 -34z" />
<glyph unicode="v" horiz-adv-x="473" d="M468 506l-184 -508h-97l-182 504l113 16l88 -273l31 -113h2q11 60 30 117l84 257h115z" />
<glyph unicode="w" horiz-adv-x="698" d="M688 506l-143 -508h-103l-62 233l-33 138h-2q-8 -50 -33 -143l-61 -228h-103l-138 501l109 15l55 -245l26 -133h3q10 66 29 136l65 234h108l57 -228l32 -144h3q12 77 25 136l52 236h114z" />
<glyph unicode="x" horiz-adv-x="477" d="M487 0h-138q-48 77 -110 189q-14 -28 -54.5 -97.5t-55.5 -91.5h-139l188 274l-146 217l119 24q53 -87 92 -164q11 27 40 83.5t40 71.5h128l-149 -230z" />
<glyph unicode="y" horiz-adv-x="483" d="M478 506l-179 -517q-34 -100 -73.5 -144.5t-123.5 -60.5l-36 71q55 15 85.5 45.5t51.5 99.5h-35q-12 49 -48 157l-115 341l112 19l93 -308q4 -13 10 -39.5t12 -50t6 -24.5q19 76 38 137l84 274h118z" />
<glyph unicode="z" horiz-adv-x="459" d="M424 77l-32 -77h-357v73l254 355h-234v78h358v-78l-240 -351h251z" />
<glyph unicode="{" horiz-adv-x="348" d="M328 -155h-90q-50 0 -84 35t-34 102v174q0 30 -19 51t-40 28t-41 8v91q33 1 66.5 23t33.5 65v175q0 66 33.5 101t84.5 35h90v-91h-49q-37 0 -49 -19.5t-12 -51.5v-168q0 -100 -93 -113v-4q93 -10 93 -111v-168q0 -72 61 -72h49v-90z" />
<glyph unicode="|" horiz-adv-x="260" d="M180 -207h-100v964h100v-964z" />
<glyph unicode="}" horiz-adv-x="348" d="M328 243q-35 -1 -67.5 -22t-32.5 -65v-175q0 -67 -33.5 -101.5t-84.5 -34.5h-90v90h48q62 0 62 72v167q0 102 94 112v5q-94 10 -94 111v169q0 32 -12 51.5t-50 19.5h-48v91h91q49 0 83 -35t34 -102v-174q0 -43 33 -65t67 -23v-91z" />
<glyph unicode="~" horiz-adv-x="556" d="M506 305q-49 -88 -123 -88q-33 0 -107 33q-4 2 -18 8l-20 10l-17 7t-19 7l-16 3q-9 2 -17 2q-19 0 -36.5 -11t-27.5 -23.5t-23 -33.5l-32 84q50 87 123 87q37 0 107 -32q8 -4 26 -12l30 -14q10 -4 24.5 -8t26.5 -4q19 0 36.5 12t26.5 23t24 33z" />
<glyph unicode="&#xa1;" horiz-adv-x="285" d="M210 -175l-134 -20l25 493h83zM215 449q0 -31 -21.5 -52.5t-52.5 -21.5q-30 0 -50.5 21.5t-20.5 51.5q0 31 21 52.5t52 21.5q29 0 50.5 -21t21.5 -52z" />
<glyph unicode="&#xa2;" horiz-adv-x="461" d="M431 56q-55 -55 -123 -64v-94h-75v94q-88 10 -133 76q-50 70 -50 181q0 118 54 186t128 82v88h76v-87q51 -2 109 -53l-54 -72q-40 40 -89 40q-52 0 -79.5 -52t-27.5 -138q0 -80 28.5 -125t81.5 -45q62 0 102 50z" />
<glyph unicode="&#xa3;" horiz-adv-x="582" d="M562 656l-81 -87q-47 45 -97 45q-122 0 -122 -146v-62h158v-86h-158v-223h250v-97h-472v97h100v223h-96v86h96v77q0 105 63 171t170 66q120 0 189 -64z" />
<glyph unicode="&#xa4;" horiz-adv-x="627" d="M597 30q-73 -41 -159 -41q-136 0 -219 100q-46 57 -66 134h-113v87h101q0 4 -0.5 13t-0.5 13q0 18 2 50h-102v87h117q10 36 29 73q39 74 106.5 116.5t148.5 42.5q86 0 142 -34l-23 -96q-53 39 -118 39q-91 0 -138 -83q-15 -28 -23 -58h222v-87h-234q-1 -12 -1 -37 q0 -7 0.5 -20t0.5 -19h234v-87h-224q5 -19 16 -46q45 -98 154 -98q69 0 124 44z" />
<glyph unicode="&#xa5;" horiz-adv-x="558" d="M558 692l-159 -295h123v-83h-166l-19 -35v-53h185v-83h-185v-143h-119v143h-179v83h179v53l-20 35h-159v83h118l-157 295h139l104 -217q22 -46 37 -89q20 49 38 87l106 219h134z" />
<glyph unicode="&#xa6;" horiz-adv-x="260" d="M180 363h-100v394h100v-394zM180 -207h-100v394h100v-394z" />
<glyph unicode="&#xa7;" horiz-adv-x="552" d="M512 282q0 -42 -24 -76.5t-63 -54.5q62 -47 62 -122q0 -45 -20.5 -80t-54.5 -55.5t-73.5 -31t-80.5 -10.5q-161 0 -218 123l106 51q11 -37 43.5 -56t73.5 -19q37 0 65 17t28 52q0 17 -8.5 30.5t-28 25.5t-33.5 18.5t-43 18.5q-74 31 -120 62q-67 47 -67 123q0 93 95 146 q-71 45 -71 117q0 79 62 122.5t143 43.5q66 0 122 -24t82 -77l-104 -59q-12 29 -38.5 45t-58.5 16q-34 0 -58 -17.5t-24 -49.5q0 -41 54 -69l52 -23q41 -18 49 -22q34 -16 55.5 -28.5t46.5 -32.5t37 -46t12 -58zM398 260q0 50 -79 87l-95 45q-55 -26 -55 -70q0 -19 6.5 -33 t21 -25t24.5 -16.5t30 -14.5l99 -46q48 24 48 73z" />
<glyph unicode="&#xa8;" horiz-adv-x="444" d="M394 630q0 -29 -20 -49.5t-48 -20.5t-47.5 20.5t-19.5 49.5t20 49.5t48 20.5q27 0 47 -20.5t20 -49.5zM184 630q0 -29 -19.5 -49.5t-47.5 -20.5t-47.5 20.5t-19.5 49.5t19.5 49.5t47.5 20.5t47.5 -20.5t19.5 -49.5z" />
<glyph unicode="&#xa9;" horiz-adv-x="840" d="M790 355q0 -155 -108.5 -263.5t-261.5 -108.5t-261.5 108.5t-108.5 263.5t108.5 263.5t261.5 108.5t261.5 -108.5t108.5 -263.5zM706 355q0 124 -83.5 211t-202.5 87t-202 -87t-83 -211q0 -125 83.5 -212.5t201.5 -87.5q119 0 202.5 88t83.5 212zM546 179 q-48 -39 -116 -39q-85 0 -136 58q-50 58 -50 149q0 77 28 130q24 46 66.5 71.5t93.5 25.5q65 0 105 -33l-38 -57q-32 23 -66 23q-46 0 -71 -36q-23 -35 -23 -107q0 -82 17 -112q26 -47 80 -47q38 0 72 27z" />
<glyph unicode="&#xaa;" horiz-adv-x="412" d="M370 417l-41 -54q-42 18 -54 53q-42 -48 -105 -48q-62 0 -93.5 31.5t-31.5 83.5q0 131 187 131h26v27q0 33 -12 47t-41 14q-51 0 -114 -43l-36 60q89 51 162 51q67 0 99 -36q24 -28 24 -77v-8l-3 -143v-10q0 -32 5 -46q7 -17 28 -33zM377 234h-342v66h342v-66zM256 559 q-11 1 -15 1q-66 0 -90 -21q-18 -17 -18 -52q0 -28 14 -43.5t39 -15.5q41 0 69 40z" />
<glyph unicode="&#xab;" horiz-adv-x="507" d="M477 70l-74 -50l-152 226l152 227l74 -50l-116 -177zM255 70l-74 -50l-151 226l151 227l74 -50l-115 -177z" />
<glyph unicode="&#xac;" horiz-adv-x="525" d="M475 66h-107v140h-318v93h425v-233z" />
<glyph unicode="&#xad;" horiz-adv-x="319" d="M269 221h-219v102h219v-102z" />
<glyph unicode="&#xae;" horiz-adv-x="840" d="M790 355q0 -155 -108.5 -263.5t-261.5 -108.5t-261.5 108.5t-108.5 263.5t108.5 263.5t261.5 108.5t261.5 -108.5t108.5 -263.5zM706 355q0 124 -83.5 211t-202.5 87t-202 -87t-83 -211q0 -125 83.5 -212.5t201.5 -87.5q119 0 202.5 88t83.5 212zM592 149h-99l-39 69 q-32 58 -45 78t-24 24q-6 3 -13 3v-174h-82v417h155q55 0 89 -33.5t34 -88.5q0 -47 -27.5 -80.5t-65.5 -34.5q11 -10 17 -18q11 -13 36 -53.5t44 -74.5zM479 442q0 39 -30 51q-18 6 -47 6h-30v-113h28q48 0 63 14q16 16 16 42z" />
<glyph unicode="&#xaf;" horiz-adv-x="345" d="M320 672h-295v70h295v-70z" />
<glyph unicode="&#xb0;" horiz-adv-x="393" d="M363 528q0 -79 -45 -124.5t-122 -45.5t-121.5 46t-44.5 125q0 78 45.5 124.5t119.5 46.5q79 0 123.5 -45.5t44.5 -126.5zM272 527q0 57 -18.5 83t-58.5 26q-75 0 -75 -104q0 -57 18.5 -83.5t58.5 -26.5q75 0 75 105z" />
<glyph unicode="&#xb1;" horiz-adv-x="507" d="M457 277h-150v-143h-107v143h-150v100h150v137h107v-137h150v-100zM455 0h-403v100h403v-100z" />
<glyph unicode="&#xb2;" horiz-adv-x="374" d="M334 321l-19 -71h-263v56q46 36 99 92q75 79 75 129q0 25 -14 38.5t-36 13.5t-40.5 -9.5t-48.5 -31.5l-47 51q77 64 156 64q55 0 90 -33t35 -84q0 -34 -23.5 -73t-41.5 -58l-58 -57q-12 -12 -30 -28q5 0 15.5 0.5t14.5 0.5h136z" />
<glyph unicode="&#xb3;" horiz-adv-x="371" d="M331 374q0 -41 -27.5 -73t-72.5 -50q-53 -20 -118 -20q-15 0 -48 4l-23 64q32 -6 54 -6q74 0 113 32q26 21 26 55t-30 44q-18 6 -59 6h-30v66h15h12h13q4 0 14 0.5t15 1.5t13.5 3t12.5 5l9 8q5 5 7 11t2 14q0 19 -12.5 30.5t-37.5 11.5q-24 0 -43 -8.5t-50 -28.5l-46 53 q70 56 149 56q57 0 94.5 -30t37.5 -76q0 -52 -50 -85q60 -30 60 -88z" />
<glyph unicode="&#xb4;" horiz-adv-x="314" d="M284 662l-220 -102l-34 63l204 132z" />
<glyph unicode="&#xb5;" horiz-adv-x="546" d="M497 37l-76 -51q-32 24 -44 63q-55 -63 -144 -63q-29 0 -46 17q3 -30 3 -45v-146l-110 -27v714l108 21v-349q0 -57 18 -77q20 -22 53 -22q30 0 59 18.5t41 45.5v360l107 22v-384q0 -32 8 -56t16 -32z" />
<glyph unicode="&#xb6;" horiz-adv-x="597" d="M517 -125h-79v767h-115v-767h-80v458q-95 0 -154 51.5t-59 130.5q0 96 61 145t168 49h258v-834z" />
<glyph unicode="&#xb7;" horiz-adv-x="276" d="M216 276q0 -33 -23 -57t-55 -24q-33 0 -55.5 24t-22.5 57q0 34 23 57.5t55 23.5q33 0 55.5 -23.5t22.5 -57.5z" />
<glyph unicode="&#xb8;" horiz-adv-x="286" d="M236 -112q0 -36 -27.5 -61t-75.5 -25q-39 0 -83 24l26 54q34 -15 54 -15q12 0 21.5 7.5t9.5 17.5q0 11 -8.5 18.5t-23.5 7.5q-9 0 -29 -5l-5 21l21 80l64 -7l-14 -41q70 -8 70 -76z" />
<glyph unicode="&#xb9;" horiz-adv-x="326" d="M286 250h-204v70h64v229q-46 -26 -82 -38l-24 49l130 87h60v-327h56v-70z" />
<glyph unicode="&#xba;" horiz-adv-x="411" d="M371 564q0 -88 -44 -142t-123 -54q-76 0 -121 53t-45 144t45 144.5t120 53.5q80 0 124 -53.5t44 -145.5zM277 563q0 73 -18.5 102.5t-54.5 29.5q-38 0 -55 -30t-17 -94q0 -75 18.5 -105.5t55.5 -30.5q71 0 71 128zM376 234h-341v66h341v-66z" />
<glyph unicode="&#xbb;" horiz-adv-x="508" d="M478 246l-152 -226l-74 50l116 176l-116 177l74 50zM256 246l-151 -226l-75 50l117 176l-117 177l75 50z" />
<glyph unicode="&#xbc;" horiz-adv-x="957" d="M785 764l-525 -917h-88l525 917h88zM917 71h-39q-1 0 -3.5 0.5t-3.5 0.5q0 -1 0.5 -5.5t0.5 -6.5v-68l-83 -14v86q0 1 0.5 4t0.5 4q-1 0 -5 -0.5t-6 -0.5h-167v56l110 271h92q-3 -6 -22 -56l-43 -108q-24 -59 -43 -92h80l4 -1v4q0 19 11 146l71 17v-161q0 -1 -1 -6 q1 0 3.5 0.5t3.5 0.5h39v-71zM286 250h-204v70h64v229q-46 -26 -82 -38l-24 49l130 87h60v-327h56v-70z" />
<glyph unicode="&#xbd;" horiz-adv-x="946" d="M755 764l-525 -917h-88l525 917h88zM906 71l-19 -71h-263v56q46 36 99 92q75 79 75 129q0 25 -14 38.5t-36 13.5t-40.5 -9.5t-48.5 -31.5l-47 51q77 64 156 64q55 0 90 -33t35 -84q0 -34 -23.5 -73t-41.5 -58l-58 -57q-12 -12 -30 -28q5 0 15.5 0.5t14.5 0.5h136z M286 250h-204v70h64v229q-46 -26 -82 -38l-24 49l130 87h60v-327h56v-70z" />
<glyph unicode="&#xbe;" horiz-adv-x="1003" d="M831 764l-525 -917h-88l525 917h88zM963 71h-39q-1 0 -3.5 0.5t-3.5 0.5q0 -1 0.5 -5.5t0.5 -6.5v-68l-83 -14v86q0 1 0.5 4t0.5 4q-1 0 -5 -0.5t-6 -0.5h-167v56l110 271h92q-3 -6 -22 -56l-43 -108q-24 -59 -43 -92h80l4 -1v4q0 19 11 146l71 17v-161q0 -1 -1 -6 q1 0 3.5 0.5t3.5 0.5h39v-71zM331 374q0 -41 -27.5 -73t-72.5 -50q-53 -20 -118 -20q-15 0 -48 4l-23 64q32 -6 54 -6q74 0 113 32q26 21 26 55t-30 44q-18 6 -59 6h-30v66h15h12h13q4 0 14 0.5t15 1.5t13.5 3t12.5 5l9 8q5 5 7 11t2 14q0 19 -12.5 30.5t-37.5 11.5 q-24 0 -43 -8.5t-50 -28.5l-46 53q70 56 149 56q57 0 94.5 -30t37.5 -76q0 -52 -50 -85q60 -30 60 -88z" />
<glyph unicode="&#xbf;" horiz-adv-x="461" d="M421 -123q-76 -69 -187 -69q-75 0 -124.5 43t-49.5 115q0 33 9.5 60t28 46.5t29.5 28.5t28 20q68 46 68 124q0 8 -3 41h94l2 -10q2 -10 3.5 -25.5t1.5 -28.5q0 -88 -76 -144q-51 -39 -62 -54q-14 -20 -14 -44q0 -37 24 -57t62 -20q64 0 118 45zM330 446q0 -31 -22.5 -53 t-53.5 -22q-30 0 -52 22t-22 53q0 32 22 54t53 22t53 -22t22 -54z" />
<glyph unicode="&#xc0;" horiz-adv-x="577" d="M579 0h-126l-56 182h-224l-56 -182h-119l227 693h133zM371 278q-5 11 -41.5 145t-40.5 155h-1q-71 -254 -87 -300h170zM394 783l-34 -63l-220 102l50 93z" />
<glyph unicode="&#xc1;" horiz-adv-x="577" d="M579 0h-126l-56 182h-224l-56 -182h-119l227 693h133zM371 278q-5 11 -41.5 145t-40.5 155h-1q-71 -254 -87 -300h170zM446 822l-220 -102l-34 63l204 132z" />
<glyph unicode="&#xc2;" horiz-adv-x="577" d="M579 0h-126l-56 182h-224l-56 -182h-119l227 693h133zM466 776l-40 -61l-138 82l-134 -82l-38 61l174 136zM371 278q-5 11 -41.5 145t-40.5 155h-1q-71 -254 -87 -300h170z" />
<glyph unicode="&#xc3;" horiz-adv-x="577" d="M579 0h-126l-56 182h-224l-56 -182h-119l227 693h133zM461 809q-27 -34 -53.5 -50t-67.5 -16q-31 0 -66 20.5t-64 20.5q-21 0 -34 -8.5t-32 -28.5l-36 61q27 35 53 50.5t67 15.5q31 0 66 -20.5t64 -20.5q22 0 35 8.5t32 28.5zM371 278q-5 11 -41.5 145t-40.5 155h-1 q-71 -254 -87 -300h170z" />
<glyph unicode="&#xc4;" horiz-adv-x="577" d="M579 0h-126l-56 182h-224l-56 -182h-119l227 693h133zM371 278q-5 11 -41.5 145t-40.5 155h-1q-71 -254 -87 -300h170zM464 790q0 -29 -20 -49.5t-48 -20.5t-47.5 20.5t-19.5 49.5t20 49.5t48 20.5q27 0 47 -20.5t20 -49.5zM254 790q0 -29 -19.5 -49.5t-47.5 -20.5 t-47.5 20.5t-19.5 49.5t19.5 49.5t47.5 20.5t47.5 -20.5t19.5 -49.5z" />
<glyph unicode="&#xc5;" horiz-adv-x="577" d="M579 0h-126l-56 182h-224l-56 -182h-119l227 693h133zM394 820q0 -43 -31 -74t-75 -31t-75 31t-31 74q0 44 31 75t75 31t75 -31t31 -75zM371 278q-5 11 -41.5 145t-40.5 155h-1q-71 -254 -87 -300h170zM346 820q0 24 -17 41.5t-41 17.5t-41 -17.5t-17 -41.5t17 -41.5 t41 -17.5t41 17.5t17 41.5z" />
<glyph unicode="&#xc6;" horiz-adv-x="843" d="M818 0h-393v184h-212l-106 -184h-127l416 691h412l-15 -94h-253v-188h212v-95h-211v-216h277v-98zM429 560q-4 0 -5 -1q-4 -10 -73.5 -133.5t-83.5 -146.5h158v181z" />
<glyph unicode="&#xc7;" horiz-adv-x="567" d="M537 50q-80 -61 -193 -61h-8l-8 -27q36 -4 53 -25t17 -50q0 -35 -28 -60t-75 -25q-39 0 -83 24l25 53q36 -15 55 -15q12 0 21.5 7.5t9.5 17.5q0 11 -9 18t-23 7l-26 -5l-10 15l19 73q-105 28 -164.5 118t-59.5 222q0 123 46 209q39 75 106.5 117t148.5 42q107 0 172 -54 l-53 -76q-55 39 -118 39q-88 0 -135 -76q-39 -64 -39 -188q0 -120 29 -177q49 -93 152 -93q69 0 124 44z" />
<glyph unicode="&#xc8;" horiz-adv-x="499" d="M474 0h-394v692h384l-15 -94h-254v-189h213v-95h-211v-216h277v-98zM379 783l-34 -63l-220 102l50 93z" />
<glyph unicode="&#xc9;" horiz-adv-x="499" d="M474 0h-394v692h384l-15 -94h-254v-189h213v-95h-211v-216h277v-98zM399 822l-220 -102l-34 63l204 132z" />
<glyph unicode="&#xca;" horiz-adv-x="499" d="M474 0h-394v692h384l-15 -94h-254v-189h213v-95h-211v-216h277v-98zM449 776l-40 -61l-138 82l-134 -82l-38 61l174 136z" />
<glyph unicode="&#xcb;" horiz-adv-x="499" d="M474 0h-394v692h384l-15 -94h-254v-189h213v-95h-211v-216h277v-98zM438 790q0 -29 -20 -49.5t-48 -20.5t-47.5 20.5t-19.5 49.5t20 49.5t48 20.5q27 0 47 -20.5t20 -49.5zM228 790q0 -29 -19.5 -49.5t-47.5 -20.5t-47.5 20.5t-19.5 49.5t19.5 49.5t47.5 20.5t47.5 -20.5 t19.5 -49.5z" />
<glyph unicode="&#xcc;" horiz-adv-x="278" d="M198 0h-118v692h118v-692zM238 785l-34 -63l-220 102l50 93z" />
<glyph unicode="&#xcd;" horiz-adv-x="278" d="M198 0h-118v692h118v-692zM297 824l-220 -102l-34 63l204 132z" />
<glyph unicode="&#xce;" horiz-adv-x="278" d="M198 0h-118v692h118v-692zM314 778l-40 -61l-138 82l-134 -82l-38 61l174 136z" />
<glyph unicode="&#xcf;" horiz-adv-x="278" d="M198 0h-118v692h118v-692zM311 791q0 -29 -20 -49.5t-48 -20.5t-47.5 20.5t-19.5 49.5t20 49.5t48 20.5q27 0 47 -20.5t20 -49.5zM101 791q0 -29 -19.5 -49.5t-47.5 -20.5t-47.5 20.5t-19.5 49.5t19.5 49.5t47.5 20.5t47.5 -20.5t19.5 -49.5z" />
<glyph unicode="&#xd0;" horiz-adv-x="621" d="M571 344q0 -154 -73 -247q-43 -55 -96.5 -76t-150.5 -21h-171v311h-79v79h79v302h144q100 0 162 -22t110 -76q75 -87 75 -250zM443 332q0 149 -44 209q-24 33 -53.5 46.5t-76.5 13.5h-73v-211h130l-24 -79h-106v-217h76q90 0 130.5 59t40.5 179z" />
<glyph unicode="&#xd1;" horiz-adv-x="629" d="M549 0h-121l-155 325q-68 141 -88 205l-3 -3q5 -55 7 -192l4 -335h-113v692h130l168 -338q48 -96 71 -178l3 3q-10 117 -10 197l-2 316h109v-692zM491 809q-27 -34 -53.5 -50t-67.5 -16q-31 0 -66 20.5t-64 20.5q-21 0 -34 -8.5t-32 -28.5l-36 61q27 35 53 50.5t67 15.5 q31 0 66 -20.5t64 -20.5q22 0 35 8.5t32 28.5z" />
<glyph unicode="&#xd2;" d="M628 345q0 -164 -75 -260t-209 -96q-143 0 -218.5 98.5t-75.5 258.5q0 168 78.5 262t210.5 94q141 0 215 -99t74 -258zM497 338q0 136 -35.5 205.5t-123.5 69.5q-84 0 -122 -65.5t-38 -194.5q0 -138 38.5 -207.5t124.5 -69.5q79 0 117.5 62.5t38.5 199.5zM450 783 l-34 -63l-220 102l50 93z" />
<glyph unicode="&#xd3;" d="M628 345q0 -164 -75 -260t-209 -96q-143 0 -218.5 98.5t-75.5 258.5q0 168 78.5 262t210.5 94q141 0 215 -99t74 -258zM497 338q0 136 -35.5 205.5t-123.5 69.5q-84 0 -122 -65.5t-38 -194.5q0 -138 38.5 -207.5t124.5 -69.5q79 0 117.5 62.5t38.5 199.5zM485 824 l-220 -102l-34 63l204 132z" />
<glyph unicode="&#xd4;" d="M628 345q0 -164 -75 -260t-209 -96q-143 0 -218.5 98.5t-75.5 258.5q0 168 78.5 262t210.5 94q141 0 215 -99t74 -258zM497 338q0 136 -35.5 205.5t-123.5 69.5q-84 0 -122 -65.5t-38 -194.5q0 -138 38.5 -207.5t124.5 -69.5q79 0 117.5 62.5t38.5 199.5zM516 776 l-40 -61l-138 82l-134 -82l-38 61l174 136z" />
<glyph unicode="&#xd5;" d="M628 345q0 -164 -75 -260t-209 -96q-143 0 -218.5 98.5t-75.5 258.5q0 168 78.5 262t210.5 94q141 0 215 -99t74 -258zM497 338q0 136 -35.5 205.5t-123.5 69.5q-84 0 -122 -65.5t-38 -194.5q0 -138 38.5 -207.5t124.5 -69.5q79 0 117.5 62.5t38.5 199.5zM506 809 q-27 -34 -53.5 -50t-67.5 -16q-31 0 -66 20.5t-64 20.5q-21 0 -34 -8.5t-32 -28.5l-36 61q27 35 53 50.5t67 15.5q31 0 66 -20.5t64 -20.5q22 0 35 8.5t32 28.5z" />
<glyph unicode="&#xd6;" d="M628 345q0 -164 -75 -260t-209 -96q-143 0 -218.5 98.5t-75.5 258.5q0 168 78.5 262t210.5 94q141 0 215 -99t74 -258zM497 338q0 136 -35.5 205.5t-123.5 69.5q-84 0 -122 -65.5t-38 -194.5q0 -138 38.5 -207.5t124.5 -69.5q79 0 117.5 62.5t38.5 199.5zM512 790 q0 -29 -20 -49.5t-48 -20.5t-47.5 20.5t-19.5 49.5t20 49.5t48 20.5q27 0 47 -20.5t20 -49.5zM301 790q0 -29 -19.5 -49.5t-47.5 -20.5t-47.5 20.5t-19.5 49.5t19.5 49.5t47.5 20.5t47.5 -20.5t19.5 -49.5z" />
<glyph unicode="&#xd7;" horiz-adv-x="588" d="M508 142l-72 -72l-141 141l-141 -141l-74 74l141 141l-141 141l72 72l141 -141l141 141l74 -74l-141 -141z" />
<glyph unicode="&#xd8;" d="M628 344q0 -189 -99 -282q-78 -74 -186 -74q-90 0 -154 40l-67 -114l-62 36l75 125q-85 103 -85 271q0 166 77.5 261t210.5 95q83 0 150 -40l61 103l63 -36l-69 -114q48 -56 66.5 -117.5t18.5 -153.5zM436 575q-41 38 -97 38q-83 0 -122 -63t-39 -199q0 -101 21 -170z M496 337q0 99 -20 167l-236 -394q13 -13 42 -24t59 -11q79 0 117 63t38 199z" />
<glyph unicode="&#xd9;" horiz-adv-x="629" d="M554 194q0 -96 -63.5 -151t-176.5 -55q-127 0 -183 56.5t-56 148.5v499h116v-465q0 -78 29 -109.5t94 -31.5q125 0 125 141v465h115v-498zM420 783l-34 -63l-220 102l50 93z" />
<glyph unicode="&#xda;" horiz-adv-x="629" d="M554 194q0 -96 -63.5 -151t-176.5 -55q-127 0 -183 56.5t-56 148.5v499h116v-465q0 -78 29 -109.5t94 -31.5q125 0 125 141v465h115v-498zM451 822l-220 -102l-34 63l204 132z" />
<glyph unicode="&#xdb;" horiz-adv-x="629" d="M554 194q0 -96 -63.5 -151t-176.5 -55q-127 0 -183 56.5t-56 148.5v499h116v-465q0 -78 29 -109.5t94 -31.5q125 0 125 141v465h115v-498zM491 776l-40 -61l-138 82l-134 -82l-38 61l174 136z" />
<glyph unicode="&#xdc;" horiz-adv-x="647" d="M563 194q0 -96 -63.5 -151t-176.5 -55q-127 0 -183 56.5t-56 148.5v499h116v-465q0 -78 29 -109.5t94 -31.5q125 0 125 141v465h115v-498zM506 790q0 -29 -20 -49.5t-48 -20.5t-47.5 20.5t-19.5 49.5t20 49.5t48 20.5q27 0 47 -20.5t20 -49.5zM297 790q0 -29 -19.5 -49.5 t-47.5 -20.5t-47.5 20.5t-19.5 49.5t19.5 49.5t47.5 20.5t47.5 -20.5t19.5 -49.5z" />
<glyph unicode="&#xdd;" horiz-adv-x="518" d="M538 692l-221 -413v-279h-119v280l-218 412h139l104 -217q9 -19 17 -40l14 -35q6 -13 6 -14q9 28 38 87l106 219h134zM405 824l-220 -102l-34 63l204 132z" />
<glyph unicode="&#xde;" horiz-adv-x="555" d="M535 375q0 -100 -64 -160.5t-160 -60.5h-117v-154h-114v692h114v-110h70q73 0 109.5 -7.5t66.5 -25.5q95 -56 95 -174zM408 368q0 58 -28 87q-32 34 -96 34h-90v-243h90q124 0 124 122z" />
<glyph unicode="&#xdf;" horiz-adv-x="587" d="M547 185q0 -87 -58.5 -142.5t-153.5 -55.5q-54 0 -81 13l26 75q25 -8 42 -8q48 0 76.5 30.5t28.5 81.5q0 35 -17 60.5t-42 40.5l-48 28q-25 13 -42 34t-17 49q0 24 11 40.5t26 26.5l32 20q16 10 27 28t11 43q0 41 -22.5 63t-60.5 22q-85 0 -85 -122v-411q0 -56 -16 -101 h-109q14 59 14 122v301h-79v83h79v18q0 76 26 114q55 80 173 80q91 0 146 -44t55 -116q0 -62 -51 -102q-15 -12 -36.5 -22.5t-32.5 -17.5t-11 -17q0 -12 15.5 -21.5t47 -24t50.5 -26.5q76 -48 76 -142z" />
<glyph unicode="&#xe0;" horiz-adv-x="515" d="M478 49l-57 -70q-51 20 -69 68q-55 -62 -139 -62t-126 41.5t-42 110.5q0 87 64 131.5t186 44.5h34v27q0 48 -14 68.5t-56 20.5q-32 0 -70 -14.5t-59 -28.5l-22 -15l-49 79q109 69 215 69q120 0 154 -84q8 -21 8 -105v-19l-2 -145v-11q0 -44 7 -63q8 -23 37 -43zM327 238 q-12 1 -20 1q-80 0 -111.5 -23t-31.5 -73q0 -36 18.5 -57t51.5 -21q55 0 91 53zM364 623l-34 -63l-220 102l50 93z" />
<glyph unicode="&#xe1;" horiz-adv-x="515" d="M478 49l-57 -70q-51 20 -69 68q-55 -62 -139 -62t-126 41.5t-42 110.5q0 87 64 131.5t186 44.5h34v27q0 48 -14 68.5t-56 20.5q-32 0 -70 -14.5t-59 -28.5l-22 -15l-49 79q109 69 215 69q120 0 154 -84q8 -21 8 -105v-19l-2 -145v-11q0 -44 7 -63q8 -23 37 -43zM327 238 q-12 1 -20 1q-80 0 -111.5 -23t-31.5 -73q0 -36 18.5 -57t51.5 -21q55 0 91 53zM400 662l-220 -102l-34 63l204 132z" />
<glyph unicode="&#xe2;" horiz-adv-x="515" d="M478 49l-57 -70q-51 20 -69 68q-55 -62 -139 -62t-126 41.5t-42 110.5q0 87 64 131.5t186 44.5h34v27q0 48 -14 68.5t-56 20.5q-32 0 -70 -14.5t-59 -28.5l-22 -15l-49 79q109 69 215 69q120 0 154 -84q8 -21 8 -105v-19l-2 -145v-11q0 -44 7 -63q8 -23 37 -43zM432 616 l-40 -61l-138 82l-134 -82l-38 61l174 136zM327 238q-12 1 -20 1q-80 0 -111.5 -23t-31.5 -73q0 -36 18.5 -57t51.5 -21q55 0 91 53z" />
<glyph unicode="&#xe3;" horiz-adv-x="515" d="M478 49l-57 -70q-51 20 -69 68q-55 -62 -139 -62t-126 41.5t-42 110.5q0 87 64 131.5t186 44.5h34v27q0 48 -14 68.5t-56 20.5q-32 0 -70 -14.5t-59 -28.5l-22 -15l-49 79q109 69 215 69q120 0 154 -84q8 -21 8 -105v-19l-2 -145v-11q0 -44 7 -63q8 -23 37 -43zM427 649 q-27 -34 -53.5 -50t-67.5 -16q-31 0 -66 20.5t-64 20.5q-21 0 -34 -8.5t-32 -28.5l-36 61q27 35 53 50.5t67 15.5q31 0 66 -20.5t64 -20.5q22 0 35 8.5t32 28.5zM327 238q-12 1 -20 1q-80 0 -111.5 -23t-31.5 -73q0 -36 18.5 -57t51.5 -21q55 0 91 53z" />
<glyph unicode="&#xe4;" horiz-adv-x="515" d="M478 49l-57 -70q-51 20 -69 68q-55 -62 -139 -62t-126 41.5t-42 110.5q0 87 64 131.5t186 44.5h34v27q0 48 -14 68.5t-56 20.5q-32 0 -70 -14.5t-59 -28.5l-22 -15l-49 79q109 69 215 69q120 0 154 -84q8 -21 8 -105v-19l-2 -145v-11q0 -44 7 -63q8 -23 37 -43zM327 238 q-15 1 -20 1q-80 0 -111.5 -23t-31.5 -73q0 -36 18.5 -57t51.5 -21q55 0 91 53zM430 630q0 -29 -20 -49.5t-48 -20.5t-47.5 20.5t-19.5 49.5t20 49.5t48 20.5q27 0 47 -20.5t20 -49.5zM220 630q0 -29 -19.5 -49.5t-47.5 -20.5t-47.5 20.5t-19.5 49.5t19.5 49.5t47.5 20.5 t47.5 -20.5t19.5 -49.5z" />
<glyph unicode="&#xe5;" horiz-adv-x="515" d="M478 49l-57 -70q-51 20 -69 68q-55 -62 -139 -62t-126 41.5t-42 110.5q0 87 64 131.5t186 44.5h34v27q0 48 -14 68.5t-56 20.5q-32 0 -70 -14.5t-59 -28.5l-22 -15l-49 79q109 69 215 69q120 0 154 -84q8 -21 8 -105v-19l-2 -145v-11q0 -44 7 -63q8 -23 37 -43zM366 660 q0 -43 -31 -74t-75 -31t-75 31t-31 74q0 44 31 75t75 31t75 -31t31 -75zM327 238q-12 1 -20 1q-80 0 -111.5 -23t-31.5 -73q0 -36 18.5 -57t51.5 -21q55 0 91 53zM318 660q0 24 -17 41.5t-41 17.5t-41 -17.5t-17 -41.5t17 -41.5t41 -17.5t41 17.5t17 41.5z" />
<glyph unicode="&#xe6;" horiz-adv-x="775" d="M735 223h-301v-21q0 -59 33 -95.5t90 -36.5q69 0 127 50l41 -66q-77 -67 -180 -67q-121 0 -171 77q-69 -80 -161 -80q-85 0 -126.5 42t-41.5 110q0 87 64 131.5t186 44.5q5 0 15 -0.5t19 -0.5v29q0 50 -13 68q-15 21 -57 21q-71 0 -152 -57l-48 78q110 69 215 69 q76 0 127 -54q56 54 128 54q90 0 142 -54q34 -36 49 -86.5t15 -132.5v-23zM327 237q-4 0 -11 0.5t-9 0.5q-80 0 -111.5 -22t-31.5 -73q0 -37 18.5 -58t51.5 -21q56 0 91 53zM620 304q0 60 -23 96.5t-68 36.5t-69.5 -34t-24.5 -99h185z" />
<glyph unicode="&#xe7;" horiz-adv-x="457" d="M427 57q-65 -68 -158 -68l-8 -27q69 -8 69 -75q0 -36 -27.5 -60.5t-75.5 -24.5q-40 0 -82 23l25 54q34 -15 54 -15q13 0 22 7.5t9 17.5q0 25 -32 25l-25 -5l-11 15l19 72q-66 16 -106 70q-50 70 -50 183q0 155 93 227q55 44 129 44q80 0 141 -54l-55 -73q-43 39 -85 39 q-54 0 -77.5 -47t-23.5 -145t33 -136q27 -31 68 -31q54 0 102 50z" />
<glyph unicode="&#xe8;" horiz-adv-x="513" d="M473 223h-302v-8q0 -62 28.5 -103t96.5 -41t126 50l43 -67q-79 -67 -182 -67q-107 0 -170 71.5t-63 193.5q0 126 63 198q59 68 155 68q82 0 139 -52q66 -60 66 -220v-23zM363 623l-34 -63l-220 102l50 93zM359 304q0 61 -24.5 96t-66.5 35q-46 0 -71 -34.5t-25 -96.5h187 z" />
<glyph unicode="&#xe9;" horiz-adv-x="513" d="M473 223h-302v-8q0 -62 28.5 -103t96.5 -41t126 50l43 -67q-79 -67 -182 -67q-107 0 -170 71.5t-63 193.5q0 126 63 198q59 68 155 68q82 0 139 -52q66 -60 66 -220v-23zM402 662l-220 -102l-34 63l204 132zM359 304q0 61 -24.5 96t-66.5 35q-46 0 -71 -34.5t-25 -96.5 h187z" />
<glyph unicode="&#xea;" horiz-adv-x="513" d="M473 223h-302v-8q0 -62 28.5 -103t96.5 -41t126 50l43 -67q-79 -67 -182 -67q-107 0 -170 71.5t-63 193.5q0 126 63 198q59 68 155 68q82 0 139 -52q66 -60 66 -220v-23zM444 616l-40 -61l-138 82l-134 -82l-38 61l174 136zM359 304q0 61 -24.5 96t-66.5 35 q-46 0 -71 -34.5t-25 -96.5h187z" />
<glyph unicode="&#xeb;" horiz-adv-x="513" d="M473 223h-302v-8q0 -62 28.5 -103t96.5 -41t126 50l43 -67q-79 -67 -182 -67q-107 0 -170 71.5t-63 193.5q0 126 63 198q59 68 155 68q82 0 139 -52q66 -60 66 -220v-23zM359 304q0 61 -24.5 96t-66.5 35q-46 0 -71 -34.5t-25 -96.5h187zM439 630q0 -29 -20 -49.5 t-48 -20.5t-47.5 20.5t-19.5 49.5t20 49.5t48 20.5q27 0 47 -20.5t20 -49.5zM229 630q0 -29 -19.5 -49.5t-47.5 -20.5t-47.5 20.5t-19.5 49.5t19.5 49.5t47.5 20.5t47.5 -20.5t19.5 -49.5z" />
<glyph unicode="&#xec;" horiz-adv-x="271" d="M191 0h-111v498l111 20v-518zM234 623l-34 -63l-220 102l50 93z" />
<glyph unicode="&#xed;" horiz-adv-x="271" d="M191 0h-111v498l111 20v-518zM294 662l-220 -102l-34 63l204 132z" />
<glyph unicode="&#xee;" horiz-adv-x="271" d="M191 0h-111v498l111 20v-518zM312 616l-40 -61l-138 82l-134 -82l-38 61l174 136z" />
<glyph unicode="&#xef;" horiz-adv-x="271" d="M191 0h-111v498l111 20v-518zM308 630q0 -29 -20 -49.5t-48 -20.5t-47.5 20.5t-19.5 49.5t20 49.5t48 20.5q27 0 47 -20.5t20 -49.5zM98 630q0 -29 -19.5 -49.5t-47.5 -20.5t-47.5 20.5t-19.5 49.5t19.5 49.5t47.5 20.5t47.5 -20.5t19.5 -49.5z" />
<glyph unicode="&#xf0;" horiz-adv-x="560" d="M510 246q0 -122 -62.5 -191t-161.5 -69q-96 0 -158.5 64t-62.5 168q0 95 59 153.5t151 58.5q40 0 76 -9q-32 55 -82 97q-8 7 -26 21l-30 -35l-71 36l35 40q-69 36 -147 44l67 81q74 -8 149 -46l32 37l71 -36l-36 -41q47 -33 80 -71q117 -137 117 -302zM392 238 q0 10 -8 74q-42 24 -101 24q-45 0 -71 -31.5t-26 -88.5q0 -59 28.5 -94.5t77.5 -35.5q48 0 74 41.5t26 110.5z" />
<glyph unicode="&#xf1;" horiz-adv-x="546" d="M466 0h-109v336q0 51 -13 69.5t-45 18.5q-24 0 -55 -16t-56 -41v-367h-108v372q0 71 -19 120l100 28q18 -34 18 -72q82 70 155 70q60 0 96 -36t36 -104v-378zM445 649q-27 -34 -53.5 -50t-67.5 -16q-31 0 -66 20.5t-64 20.5q-21 0 -34 -8.5t-32 -28.5l-36 61 q27 35 53 50.5t67 15.5q31 0 66 -20.5t64 -20.5q22 0 35 8.5t32 28.5z" />
<glyph unicode="&#xf2;" horiz-adv-x="537" d="M492 251q0 -122 -60.5 -193t-163.5 -71t-163 71.5t-60 193.5q0 121 60 193.5t161 72.5q106 0 166 -72.5t60 -194.5zM371 249q0 102 -26.5 144t-77.5 42q-52 0 -76 -42t-24 -134q0 -106 25.5 -148t77.5 -42q101 0 101 180zM361 623l-34 -63l-220 102l50 93z" />
<glyph unicode="&#xf3;" horiz-adv-x="537" d="M492 251q0 -122 -60.5 -193t-163.5 -71t-163 71.5t-60 193.5q0 121 60 193.5t161 72.5q106 0 166 -72.5t60 -194.5zM371 249q0 102 -26.5 144t-77.5 42q-52 0 -76 -42t-24 -134q0 -106 25.5 -148t77.5 -42q101 0 101 180zM410 662l-220 -102l-34 63l204 132z" />
<glyph unicode="&#xf4;" horiz-adv-x="537" d="M492 251q0 -122 -60.5 -193t-163.5 -71t-163 71.5t-60 193.5q0 121 60 193.5t161 72.5q106 0 166 -72.5t60 -194.5zM371 249q0 102 -26.5 144t-77.5 42q-52 0 -76 -42t-24 -134q0 -106 25.5 -148t77.5 -42q101 0 101 180zM442 616l-40 -61l-138 82l-134 -82l-38 61 l174 136z" />
<glyph unicode="&#xf5;" horiz-adv-x="537" d="M492 251q0 -122 -60.5 -193t-163.5 -71t-163 71.5t-60 193.5q0 121 60 193.5t161 72.5q106 0 166 -72.5t60 -194.5zM371 249q0 102 -26.5 144t-77.5 42q-52 0 -76 -42t-24 -134q0 -106 25.5 -148t77.5 -42q101 0 101 180zM440 649q-27 -34 -53.5 -50t-67.5 -16 q-31 0 -66 20.5t-64 20.5q-21 0 -34 -8.5t-32 -28.5l-36 61q27 35 53 50.5t67 15.5q31 0 66 -20.5t64 -20.5q22 0 35 8.5t32 28.5z" />
<glyph unicode="&#xf6;" horiz-adv-x="537" d="M492 251q0 -122 -60.5 -193t-163.5 -71t-163 71.5t-60 193.5q0 121 60 193.5t161 72.5q106 0 166 -72.5t60 -194.5zM371 249q0 102 -26.5 144t-77.5 42q-52 0 -76 -42t-24 -134q0 -106 25.5 -148t77.5 -42q101 0 101 180zM437 630q0 -29 -20 -49.5t-48 -20.5t-47.5 20.5 t-19.5 49.5t20 49.5t48 20.5q27 0 47 -20.5t20 -49.5zM228 630q0 -29 -19.5 -49.5t-47.5 -20.5t-47.5 20.5t-19.5 49.5t19.5 49.5t47.5 20.5t47.5 -20.5t19.5 -49.5z" />
<glyph unicode="&#xf7;" horiz-adv-x="605" d="M555 220h-505v93h505v-93zM377 63q0 -32 -23 -54.5t-55 -22.5t-54 22.5t-22 54.5q0 33 23 57q21 23 52 23h3q31 0 53.5 -23.5t22.5 -56.5zM378 472q0 -33 -23 -55.5t-55 -22.5t-54 22t-22 54q0 33 22.5 56t54.5 24q32 0 54.5 -23t22.5 -55z" />
<glyph unicode="&#xf8;" horiz-adv-x="536" d="M491 251q0 -124 -60 -194t-164 -70q-62 0 -106 27l-55 -91l-53 31l58 98q-66 74 -66 200q0 122 60 194t161 72q60 0 110 -25l55 91l53 -31l-60 -100q67 -70 67 -202zM370 249q0 54 -11 96l-152 -254q30 -22 63 -22q52 0 76 43t24 137zM328 413q-26 22 -61 22 q-51 0 -76 -42t-25 -134q0 -44 11 -99z" />
<glyph unicode="&#xf9;" horiz-adv-x="542" d="M493 36l-76 -52q-32 23 -44 63q-55 -62 -144 -62q-84 0 -126 50q-28 34 -28 120v343l108 20v-339q0 -55 14.5 -82t59.5 -27q28 0 57 19.5t42 46.5v362l106 20v-381q0 -34 8 -59t16 -34zM390 623l-34 -63l-220 102l50 93z" />
<glyph unicode="&#xfa;" horiz-adv-x="542" d="M493 36l-76 -52q-32 23 -44 63q-55 -62 -144 -62q-84 0 -126 50q-28 34 -28 120v343l108 20v-339q0 -55 14.5 -82t59.5 -27q28 0 57 19.5t42 46.5v362l106 20v-381q0 -34 8 -59t16 -34zM410 662l-220 -102l-34 63l204 132z" />
<glyph unicode="&#xfb;" horiz-adv-x="542" d="M493 36l-76 -52q-32 23 -44 63q-55 -62 -144 -62q-84 0 -126 50q-28 34 -28 120v343l108 20v-339q0 -55 14.5 -82t59.5 -27q28 0 57 19.5t42 46.5v362l106 20v-381q0 -34 8 -59t16 -34zM445 616l-40 -61l-138 82l-134 -82l-38 61l174 136z" />
<glyph unicode="&#xfc;" horiz-adv-x="542" d="M493 36l-76 -52q-32 23 -44 63q-55 -62 -144 -62q-84 0 -126 50q-28 34 -28 120v343l108 20v-339q0 -55 14.5 -82t59.5 -27q28 0 57 19.5t42 46.5v362l106 20v-381q0 -34 8 -59t16 -34zM442 630q0 -29 -20 -49.5t-48 -20.5t-47.5 20.5t-19.5 49.5t20 49.5t48 20.5 q27 0 47 -20.5t20 -49.5zM232 630q0 -29 -19.5 -49.5t-47.5 -20.5t-47.5 20.5t-19.5 49.5t19.5 49.5t47.5 20.5t47.5 -20.5t19.5 -49.5z" />
<glyph unicode="&#xfd;" horiz-adv-x="483" d="M478 506l-179 -517q-34 -100 -73.5 -144.5t-123.5 -60.5l-36 71q55 15 85.5 45.5t51.5 99.5h-35q-12 49 -48 157l-115 341l112 19l93 -308l28 -114q19 75 38 137l84 274h118zM403 662l-220 -102l-34 63l204 132z" />
<glyph unicode="&#xfe;" horiz-adv-x="557" d="M507 261q0 -121 -56.5 -196.5t-145.5 -75.5q-71 0 -119 55v-232l-106 -26v804q0 82 -13 122l114 25q8 -48 8 -101v-118l-3 -48l4 -1q50 49 120 49q91 0 144 -69.5t53 -187.5zM383 260q0 77 -21 121t-76 44t-96 -51v-247q42 -44 94 -44t75.5 41t23.5 136z" />
<glyph unicode="&#xff;" horiz-adv-x="483" d="M478 506l-179 -517q-34 -100 -73.5 -144.5t-123.5 -60.5l-36 71q55 15 85.5 45.5t51.5 99.5h-35q-12 49 -48 157l-115 341l112 19l93 -308l28 -114q19 75 38 137l84 274h118zM424 630q0 -29 -20 -49.5t-48 -20.5t-47.5 20.5t-19.5 49.5t20 49.5t48 20.5q27 0 47 -20.5 t20 -49.5zM214 630q0 -29 -19.5 -49.5t-47.5 -20.5t-47.5 20.5t-19.5 49.5t19.5 49.5t47.5 20.5t47.5 -20.5t19.5 -49.5z" />
<glyph unicode="&#x152;" horiz-adv-x="851" d="M826 0h-422q-105 0 -154.5 11.5t-97.5 53.5q-102 90 -102 282q0 148 73 244q79 102 240 102l62 -1h384l-15 -94h-252v-189h210v-95h-210v-216h284v-98zM432 99v486q-63 9 -82 9q-67 0 -104 -33q-61 -53 -61 -202q0 -134 38 -200q41 -69 124 -69q17 0 85 9z" />
<glyph unicode="&#x153;" horiz-adv-x="820" d="M780 223h-301v-16q0 -66 33.5 -101.5t90.5 -35.5q68 0 126 50l42 -66q-86 -67 -181 -67q-110 0 -163 69q-58 -69 -159 -69q-104 0 -163.5 72t-59.5 193q0 123 61 194.5t160 71.5q97 0 158 -67q56 68 151 68q101 0 153 -66.5t52 -193.5v-36zM371 249q0 102 -26.5 144 t-77.5 42t-75.5 -41t-24.5 -135q0 -101 25 -145.5t78 -44.5q101 0 101 180zM667 304q0 62 -24 97.5t-68 35.5q-45 0 -70 -34.5t-25 -98.5h187z" />
<glyph unicode="&#x178;" horiz-adv-x="518" d="M538 692l-221 -413v-279h-119v280l-218 412h139l104 -217q21 -44 37 -89q20 49 38 87l106 219h134zM430 790q0 -29 -20 -49.5t-48 -20.5t-47.5 20.5t-19.5 49.5t20 49.5t48 20.5q27 0 47 -20.5t20 -49.5zM220 790q0 -29 -19.5 -49.5t-47.5 -20.5t-47.5 20.5t-19.5 49.5 t19.5 49.5t47.5 20.5t47.5 -20.5t19.5 -49.5z" />
<glyph unicode="&#x2c6;" horiz-adv-x="400" d="M375 616l-40 -61l-138 82l-134 -82l-38 61l174 136z" />
<glyph unicode="&#x2dc;" horiz-adv-x="393" d="M373 649q-27 -34 -53.5 -50t-67.5 -16q-31 0 -66 20.5t-64 20.5q-21 0 -34 -8.5t-32 -28.5l-36 61q27 35 53 50.5t67 15.5q31 0 66 -20.5t64 -20.5q22 0 35 8.5t32 28.5z" />
<glyph unicode="&#x2000;" horiz-adv-x="463" />
<glyph unicode="&#x2001;" horiz-adv-x="926" />
<glyph unicode="&#x2002;" horiz-adv-x="463" />
<glyph unicode="&#x2003;" horiz-adv-x="926" />
<glyph unicode="&#x2004;" horiz-adv-x="308" />
<glyph unicode="&#x2005;" horiz-adv-x="231" />
<glyph unicode="&#x2006;" horiz-adv-x="154" />
<glyph unicode="&#x2007;" horiz-adv-x="154" />
<glyph unicode="&#x2008;" horiz-adv-x="115" />
<glyph unicode="&#x2009;" horiz-adv-x="185" />
<glyph unicode="&#x200a;" horiz-adv-x="51" />
<glyph unicode="&#x2010;" horiz-adv-x="319" d="M269 221h-219v102h219v-102z" />
<glyph unicode="&#x2011;" horiz-adv-x="319" d="M269 221h-219v102h219v-102z" />
<glyph unicode="&#x2013;" horiz-adv-x="583" d="M533 233h-483v87h483v-87z" />
<glyph unicode="&#x2014;" horiz-adv-x="809" d="M759 233h-709v87h709v-87z" />
<glyph unicode="&#x2018;" horiz-adv-x="267" d="M222 665q-30 -10 -49 -29.5t-19 -39.5q0 -9 10 -15.5t22.5 -12t22.5 -21.5t10 -41q0 -33 -23 -56.5t-56 -23.5q-39 0 -64.5 31t-25.5 80q0 59 36.5 108t95.5 70z" />
<glyph unicode="&#x2019;" horiz-adv-x="267" d="M217 597q0 -63 -39 -114q-35 -44 -92 -64l-41 49q31 10 49.5 29.5t18.5 41.5q0 11 -22 21q-43 18 -43 67q0 34 23 57t56 23q39 0 64.5 -31t25.5 -79z" />
<glyph unicode="&#x201a;" horiz-adv-x="267" d="M217 35q0 -62 -36.5 -109.5t-95.5 -69.5l-40 50q30 10 49 30t19 41q0 12 -22 21q-43 17 -43 67q0 34 23 57t56 23q39 0 64.5 -31t25.5 -79z" />
<glyph unicode="&#x201c;" horiz-adv-x="481" d="M436 665q-30 -9 -49 -28.5t-19 -41.5q0 -3 1.5 -6t5.5 -5l7 -5q3 -2 9.5 -5.5t9.5 -5.5q33 -19 33 -62q0 -33 -23.5 -56.5t-56.5 -23.5q-39 0 -64 31t-25 80q0 63 38 112q34 45 93 66zM222 665q-31 -9 -50 -28.5t-19 -41.5q0 -8 10.5 -14.5t22.5 -12.5t22.5 -22t10.5 -40 q0 -33 -23 -56.5t-57 -23.5q-39 0 -64 31t-25 80q0 61 39 112q36 46 92 66z" />
<glyph unicode="&#x201d;" horiz-adv-x="482" d="M218 597q0 -60 -36.5 -109t-95.5 -69l-41 49q31 10 50 29.5t19 41.5q0 4 -7.5 11t-14.5 10q-43 17 -43 67q0 34 22.5 57t56.5 23q39 0 64.5 -31t25.5 -79zM432 597q0 -63 -36.5 -110.5t-94.5 -67.5l-41 49q31 10 49.5 29.5t18.5 41.5q0 4 -7 11t-14 10q-43 18 -43 67 q0 34 22.5 57t56.5 23q39 0 64 -31t25 -79z" />
<glyph unicode="&#x201e;" horiz-adv-x="482" d="M432 35q0 -62 -36.5 -109.5t-95.5 -69.5l-40 50q30 10 49 30t19 41q0 12 -22 21q-43 17 -43 67q0 34 23 57t56 23q39 0 64.5 -31t25.5 -79zM217 35q0 -62 -36.5 -109.5t-95.5 -69.5l-40 50q30 10 49 30t19 41q0 12 -22 21q-43 17 -43 67q0 34 23 57t56 23q39 0 64.5 -31 t25.5 -79z" />
<glyph unicode="&#x2022;" horiz-adv-x="490" d="M420 355q0 -74 -51 -125.5t-124 -51.5t-124 51.5t-51 125.5t51 125.5t124 51.5t124 -51.5t51 -125.5z" />
<glyph unicode="&#x2026;" horiz-adv-x="762" d="M217 67q0 -34 -23 -58t-55 -24q-33 0 -56 24t-23 58q0 33 22.5 56t54.5 23q33 0 56.5 -23t23.5 -56zM702 67q0 -34 -23 -58t-55 -24q-33 0 -56 24t-23 58q0 33 23 56t55 23t55.5 -23t23.5 -56zM459 67q0 -34 -23 -58t-55 -24q-33 0 -55.5 24t-22.5 58q0 33 22.5 56 t54.5 23q33 0 56 -23t23 -56z" />
<glyph unicode="&#x202f;" horiz-adv-x="185" />
<glyph unicode="&#x2039;" horiz-adv-x="285" d="M255 70l-74 -50l-151 226l151 227l74 -50l-115 -177z" />
<glyph unicode="&#x203a;" horiz-adv-x="286" d="M256 246l-151 -226l-75 50l117 176l-117 177l75 50z" />
<glyph unicode="&#x205f;" horiz-adv-x="231" />
<glyph unicode="&#x20ac;" horiz-adv-x="627" d="M597 30q-73 -41 -159 -41q-136 0 -219 100q-46 57 -66 134h-113v87h101q0 4 -0.5 13t-0.5 13q0 18 2 50h-102v87h117q10 36 29 73q39 74 106.5 116.5t148.5 42.5q86 0 142 -34l-23 -96q-53 39 -118 39q-91 0 -138 -83q-15 -28 -23 -58h222v-87h-234q-1 -12 -1 -37 q0 -7 0.5 -20t0.5 -19h234v-87h-224q5 -19 16 -46q45 -98 154 -98q69 0 124 44z" />
<glyph unicode="&#x2122;" horiz-adv-x="985" d="M925 296h-89v301h-5l-113 -301h-58l-112 299l-5 1v-300h-89v412h127l109 -290l108 290h127v-412zM365 627h-123v-331h-89v331h-123v81h335v-81z" />
</font>
</defs>
</svg>
